# xmcd
#
# Track frame offsets: 
#        150
#        9804
#        34507
#        54269
#        70914
#        101134
#        115747
#        132760
#        148324
#        174692
#        201052
#        238094
#        258401
#        270389
#        282700
#        296800
#        317044
#
# Disc length: 4521 seconds
#
# Revision: 2
# Processed by: cddbd v1.5.2PL0 Copyright (c) Steve Scherf et al.
# Submitted via: ExactAudioCopy v1.0b1
#
DISCID=0011a711
DTITLE=New Grass Revival - Grass Roots - The Best Of New Grass Revival
DTITLE=Disc 1
DYEAR=2005
DGENRE=Bluegrass
TTITLE0=Great Balls Of Fire
TTITLE1=Prince Of Peace
TTITLE2=Casey Jones
TTITLE3=The Dancer
TTITLE4=Doin' My Time
TTITLE5=All Night Train
TTITLE6=Vamp In The Middle
TTITLE7=Spring Peepers
TTITLE8=Lee Highway Blues
TTITLE9=Souvenir Bottles
TTITLE10=Sapporo
TTITLE11=Steam Powered Aero Plane
TTITLE12=When The Storm Is Over
TTITLE13=You Don't Knock
TTITLE14=White Freight Liner Blues
TTITLE15=Good Woman's Love
TTITLE16=Reach
EXTD=
EXTT0=
EXTT1=
EXTT2=
EXTT3=
EXTT4=
EXTT5=
EXTT6=
EXTT7=
EXTT8=
EXTT9=
EXTT10=
EXTT11=
EXTT12=
EXTT13=
EXTT14=
EXTT15=
EXTT16=
PLAYORDER=
